<svg width="64" height="64" viewBox="0 0 64 64" fill="none" xmlns="http://www.w3.org/2000/svg">
<path fill-rule="evenodd" clip-rule="evenodd" d="M31.424 28.2401C31.1343 28.2401 30.8445 28.1296 30.6238 27.9085C30.1817 27.4668 30.1817 26.75 30.6238 26.3083L30.7585 26.1743C32.2158 24.7155 34.402 20.7024 34.402 19.4756C34.402 19.0222 34.6721 18.6128 35.0885 18.4348C35.1297 18.4148 36.5176 17.7339 36.5176 15.4885C36.5176 15.0486 36.4289 14.7272 36.2674 14.5827C36.0935 14.4273 35.7793 14.422 35.6831 14.4333C35.3564 14.4828 35.0357 14.3858 34.786 14.1708C34.5359 13.9561 34.402 13.6415 34.402 13.3118C34.402 12.6984 34.4318 12.0541 34.4604 11.4308C34.5713 9.04174 34.6856 6.57154 33.2283 5.04521C32.0227 3.78256 29.7154 3.14238 26.37 3.14238H26.2055C22.8605 3.14238 20.5529 3.78256 19.3472 5.04521C17.8903 6.57154 18.0046 9.04137 18.1151 11.4305C18.1438 12.054 18.1736 12.6984 18.1736 13.3118C18.1736 13.6415 18.0303 13.9546 17.7801 14.1696C17.5304 14.3843 17.1988 14.479 16.8732 14.4311C16.7959 14.4232 16.4824 14.4273 16.3085 14.5827C16.147 14.7272 16.0584 15.0486 16.0584 15.4885C16.0584 17.7339 17.4459 18.4148 17.5051 18.4427C17.9216 18.6211 18.1736 19.0222 18.1736 19.4756C18.1736 20.7024 20.3597 24.7159 21.8284 26.186L21.9366 26.2928C22.378 26.7349 22.3859 27.4592 21.9438 27.901C21.502 28.3424 20.7932 28.3507 20.3514 27.9085L20.239 27.7969C18.7591 26.3158 16.4194 22.4524 15.9818 20.1531C15.1556 19.5631 13.7949 18.1824 13.7949 15.4885C13.7949 14.0591 14.3623 13.2707 14.8384 12.8614C15.176 12.5709 15.5438 12.3985 15.8875 12.2981C15.8781 12.0495 15.866 11.7953 15.8543 11.5353C15.7276 8.80408 15.5846 5.7084 17.7104 3.4819C19.3827 1.73035 22.1615 0.878906 26.2055 0.878906H26.37C30.4141 0.878906 33.1929 1.73035 34.8656 3.4819C36.9914 5.7084 36.848 8.80408 36.7216 11.5357C36.7096 11.7956 36.6979 12.0495 36.6884 12.2981C37.0317 12.3985 37.3999 12.5709 37.7376 12.8614C38.2136 13.2707 38.781 14.0591 38.781 15.4885C38.781 18.1824 37.4199 19.5631 36.5938 20.1531C36.1561 22.4521 33.818 26.3147 32.3482 27.7856L32.2241 27.9085C32.0034 28.1296 31.7137 28.2401 31.424 28.2401Z" fill="black"/>
<path fill-rule="evenodd" clip-rule="evenodd" d="M26.1874 52.4539C17.7084 52.4539 9.32377 51.0495 1.26392 48.2797C0.807078 48.1228 0.5 47.6927 0.5 47.2095C0.5 42.6346 1.55214 39.5367 3.91143 37.1653C4.9681 36.1079 7.39114 35.4036 11.2568 34.3412C13.5206 33.7195 15.8618 33.0763 17.6262 32.3407C19.9953 31.3523 20.0228 30.7189 20.0228 30.7125V27.1034C20.0228 26.4783 20.5295 25.9717 21.1546 25.9717C21.7793 25.9717 22.2863 26.4783 22.2863 27.1034V30.7125C22.2863 33.6588 17.2199 35.0505 11.8566 36.5236C9.33622 37.2162 6.19942 38.0782 5.51435 38.7637C3.72054 40.5666 2.88306 42.8794 2.77554 46.401C10.3589 48.9158 18.232 50.1905 26.1874 50.1905C26.2214 50.1905 26.2564 50.1829 26.2874 50.1905C26.9117 50.1905 27.4184 50.6964 27.4191 51.3207C27.4199 51.9458 26.914 52.4532 26.2889 52.4539H26.1874Z" fill="black"/>
<path fill-rule="evenodd" clip-rule="evenodd" d="M31.4208 31.8443C30.7957 31.8443 30.2891 31.3376 30.2891 30.7125V27.1034C30.2891 26.4779 30.7957 25.9717 31.4208 25.9717C32.0459 25.9717 32.5525 26.4779 32.5525 27.1034V30.7125C32.5525 31.3376 32.0459 31.8443 31.4208 31.8443Z" fill="black"/>
<path fill-rule="evenodd" clip-rule="evenodd" d="M46.4601 42.367C43.9937 42.367 41.9871 44.3732 41.9871 46.8389C41.9871 49.3049 43.9937 51.3107 46.4601 51.3107C48.9258 51.3107 50.932 49.3049 50.932 46.8389C50.932 44.3732 48.9258 42.367 46.4601 42.367ZM46.4601 53.5742C42.7457 53.5742 39.7236 50.5528 39.7236 46.8389C39.7236 43.1253 42.7457 40.1035 46.4601 40.1035C50.1741 40.1035 53.1954 43.1253 53.1954 46.8389C53.1954 50.5528 50.1741 53.5742 46.4601 53.5742Z" fill="black"/>
<path fill-rule="evenodd" clip-rule="evenodd" d="M45.6007 61.3976H47.3202L48.2101 57.8338C48.3116 57.4275 48.6292 57.1102 49.0359 57.0091C50.016 56.7665 50.9546 56.3753 51.8256 55.848C52.1847 55.631 52.6348 55.6299 52.9947 55.8461L56.1462 57.7395L57.3606 56.5251L55.4672 53.3736C55.2514 53.0145 55.2518 52.5655 55.4683 52.2068C55.9983 51.3274 56.3895 50.3881 56.6302 49.4152C56.7309 49.0085 57.0482 48.6905 57.4545 48.589L61.0187 47.6995V45.9807L57.4541 45.0897C57.0478 44.9882 56.7309 44.6705 56.6302 44.2639C56.3884 43.2883 55.9976 42.3501 55.4687 41.4757C55.2518 41.1165 55.251 40.6672 55.4672 40.3077L57.3606 37.1536L56.1462 35.9392L52.9947 37.8322C52.6352 38.0484 52.1863 38.048 51.8271 37.8311C50.9478 37.3007 50.0096 36.911 49.0381 36.6722C48.6307 36.5722 48.3119 36.255 48.2101 35.8472L47.3198 32.2811H45.6007L44.7108 35.8472C44.6089 36.255 44.2901 36.5722 43.8823 36.6722C42.9105 36.911 41.9727 37.3007 41.0952 37.8307C40.7361 38.0476 40.2872 38.0484 39.9273 37.8326L36.7739 35.9392L35.5599 37.1536L37.4526 40.3077C37.6687 40.6672 37.668 41.1165 37.4507 41.4757C36.9244 42.346 36.5343 43.2838 36.2914 44.2639C36.1907 44.6705 35.8738 44.9882 35.4675 45.0897L31.9021 45.9807V47.6995L35.4671 48.589C35.8738 48.6905 36.191 49.0085 36.2918 49.4152C36.5336 50.3922 36.9237 51.3312 37.4514 52.2068C37.668 52.5655 37.6683 53.0141 37.4526 53.3736L35.5599 56.5251L36.7739 57.7395L39.9273 55.8457C40.2876 55.6299 40.7376 55.6303 41.0968 55.8483C41.9663 56.3753 42.9041 56.7662 43.885 57.0091C44.2913 57.1102 44.6093 57.4275 44.7108 57.8338L45.6007 61.3976ZM48.2037 63.6611H44.7168C44.1973 63.6611 43.7446 63.3072 43.619 62.8036L42.6744 59.021C41.9323 58.792 41.2133 58.4928 40.5256 58.1265L37.1809 60.135C36.7354 60.4017 36.165 60.3323 35.798 59.9648L33.3345 57.5003C32.9671 57.1329 32.8973 56.5628 33.1648 56.1173L35.1725 52.7738C34.8066 52.0846 34.5082 51.3655 34.2795 50.6257L30.4965 49.6819C29.9922 49.5559 29.6387 49.1032 29.6387 48.5837V45.0968C29.6387 44.5774 29.9922 44.1247 30.4958 43.9991L34.2799 43.0533C34.5085 42.312 34.8069 41.5941 35.1721 40.9068L33.1644 37.5606C32.8973 37.1155 32.9675 36.5454 33.3345 36.178L35.798 33.7135C36.165 33.3464 36.7354 33.2766 37.1809 33.5433L40.5264 35.5521C41.2175 35.1851 41.9361 34.8863 42.6744 34.6588L43.619 30.8754C43.7446 30.3714 44.1973 30.0176 44.7168 30.0176H48.2037C48.7231 30.0176 49.1762 30.3714 49.3018 30.8754L50.2461 34.6588C50.9844 34.8863 51.7034 35.1851 52.3949 35.5521L55.7384 33.5437C56.1839 33.2762 56.7543 33.346 57.1214 33.7135L59.5863 36.178C59.9534 36.5454 60.0235 37.1158 59.7561 37.5606L57.7476 40.9064C58.1139 41.5956 58.4131 42.3139 58.6417 43.0533L62.4247 43.9991C62.9287 44.1251 63.2822 44.5774 63.2822 45.0968V48.5837C63.2822 49.1032 62.9283 49.5559 62.4243 49.6819L58.6421 50.6257C58.4138 51.364 58.1143 52.0827 57.7472 52.7742L59.7561 56.1173C60.0235 56.5628 59.9537 57.1329 59.5863 57.5003L57.1214 59.9648C56.7543 60.3323 56.1839 60.4021 55.7384 60.1346L52.3956 58.1265C51.7072 58.4928 50.9881 58.792 50.2465 59.021L49.3018 62.8036C49.1762 63.3072 48.7231 63.6611 48.2037 63.6611Z" fill="black"/>
</svg>
