<?xml version="1.0" encoding="UTF-8"?>
<svg width="63px" height="63px" viewBox="0 0 63 63" version="1.1" xmlns="http://www.w3.org/2000/svg" xmlns:xlink="http://www.w3.org/1999/xlink">
    <title>Group</title>
    <g id="Symbols" stroke="none" stroke-width="1" fill="none" fill-rule="evenodd">
        <g id="Icon/06" transform="translate(-6.000000, -7.000000)" fill="#000000">
            <g id="Group" transform="translate(6.000000, 7.000000)">
                <path d="M30.9235311,27.3612395 C30.6338066,27.3612395 30.344082,27.2507066 30.1233934,27.0296407 C29.6812617,26.5878862 29.6812617,25.8711198 30.1233934,25.4293653 L30.2580701,25.2954431 C31.7153695,23.8366347 33.9015072,19.823497 33.9015072,18.5966946 C33.9015072,18.1432455 34.171615,17.7339341 34.588094,17.5558743 C34.6292138,17.5358802 36.0171,16.8549521 36.0171,14.6095868 C36.0171,14.1697186 35.9284473,13.8483054 35.7669862,13.7038204 C35.593076,13.5483952 35.2788305,13.5431138 35.1826329,13.5544311 C34.8559383,13.6038503 34.5352796,13.5068982 34.2855431,13.2918683 C34.0354293,13.0772156 33.9015072,12.7625928 33.9015072,12.4328802 C33.9015072,11.819479 33.9313096,11.1751437 33.9599802,10.5519341 C34.0708904,8.16283832 34.1851958,5.69263473 32.7278964,4.1662994 C31.5222198,2.90365868 29.2149862,2.26347305 25.8695731,2.26347305 L25.705094,2.26347305 C22.3600581,2.26347305 20.0524473,2.90365868 18.8467707,4.1662994 C17.3898485,5.69263473 17.5041539,8.16246108 17.6146868,10.5515569 C17.6433575,11.1751437 17.6731599,11.819479 17.6731599,12.4328802 C17.6731599,12.7625928 17.5298066,13.0757066 17.2796928,13.2907365 C17.0299563,13.5053892 16.6983575,13.6000778 16.3727946,13.5521677 C16.2954593,13.5442455 15.9819683,13.5483952 15.8080581,13.7038204 C15.646597,13.8483054 15.5579443,14.1697186 15.5579443,14.6095868 C15.5579443,16.8549521 16.9454533,17.5358802 17.0046808,17.5637964 C17.4211599,17.7422335 17.6731599,18.1432455 17.6731599,18.5966946 C17.6731599,19.823497 19.8592976,23.837012 21.3279144,25.3071377 L21.4361838,25.4138982 C21.8775611,25.8560299 21.8854832,26.5803413 21.4433515,27.0220958 C21.001597,27.4634731 20.2927527,27.4717725 19.8509982,27.0296407 L19.738579,26.917976 C18.2586449,25.4369102 15.9189683,21.5735389 15.4813635,19.2742275 C14.6551958,18.6842156 13.2944713,17.303497 13.2944713,14.6095868 C13.2944713,13.1802036 13.8618485,12.3917605 14.3379323,11.9824491 C14.6755671,11.6919701 15.0433814,11.5195689 15.3870521,11.4192216 C15.377621,11.1706168 15.3655491,10.9163533 15.3538545,10.6564311 C15.2271,7.92517365 15.084124,4.82949701 17.2099024,2.60299401 C18.8822317,0.851443114 21.6610222,-5.59552404e-15 25.705094,-5.59552404e-15 L25.8695731,-5.59552404e-15 C29.9136449,-5.59552404e-15 32.6924353,0.851443114 34.3651419,2.60299401 C36.4909204,4.82949701 36.3475671,7.92517365 36.2211898,10.6568084 C36.209118,10.9167305 36.1974234,11.1706168 36.1879922,11.4192216 C36.5312856,11.5195689 36.8994772,11.6919701 37.237112,11.9824491 C37.7131958,12.3917605 38.2805731,13.1802036 38.2805731,14.6095868 C38.2805731,17.303497 36.9194713,18.6842156 36.0933036,19.2742275 C35.6556988,21.5731617 33.3175311,25.4357784 31.8477826,26.9066587 L31.7236689,27.0296407 C31.5029802,27.2507066 31.2132557,27.3612395 30.9235311,27.3612395" id="Fill-1"></path>
                <path d="M25.6874012,51.5745916 C17.2084311,51.5745916 8.82377246,50.1701066 0.763922156,47.4003701 C0.307077844,47.2434359 7.46069873e-15,46.813376 7.46069873e-15,46.3301246 C7.46069873e-15,41.7552683 1.05213772,38.6573281 3.41143114,36.2859629 C4.46809581,35.2285437 6.89114371,34.5242263 10.7567784,33.461903 C13.0206287,32.8402024 15.3618144,32.1969988 17.1261916,31.4613701 C19.4952934,30.4729868 19.5228323,29.8395916 19.5228323,29.8331784 L19.5228323,26.2240707 C19.5228323,25.5989749 20.0294731,25.0923341 20.6545689,25.0923341 C21.2792874,25.0923341 21.7863054,25.5989749 21.7863054,26.2240707 L21.7863054,29.8331784 C21.7863054,32.7794659 16.7198982,34.1711246 11.3565988,35.6442683 C8.83622156,36.336891 5.69942515,37.198897 5.01434731,37.8843521 C3.22054491,39.6872084 2.38305988,42.0001006 2.27554491,45.5216874 C9.85893413,48.036406 17.7320479,49.3111186 25.6874012,49.3111186 C25.7213533,49.3111186 25.7564371,49.3035737 25.7873713,49.3111186 C26.4117126,49.3111186 26.9183533,49.8170048 26.9191086,50.4413461 C26.9198623,51.0664419 26.413976,51.5738371 25.7888802,51.5745916 L25.6874012,51.5745916 Z" id="Fill-3"></path>
                <path d="M30.9204,30.9649904 C30.2953042,30.9649904 29.7886635,30.4583497 29.7886635,29.8332539 L29.7886635,26.2241461 C29.7886635,25.5986731 30.2953042,25.0924096 30.9204,25.0924096 C31.5454958,25.0924096 32.0521365,25.5986731 32.0521365,26.2241461 L32.0521365,29.8332539 C32.0521365,30.4583497 31.5454958,30.9649904 30.9204,30.9649904" id="Fill-6"></path>
                <path d="M45.9601222,41.4880653 C43.493691,41.4880653 41.4871222,43.4942569 41.4871222,45.9599335 C41.4871222,48.4259874 43.493691,50.4318018 45.9601222,50.4318018 C48.4257988,50.4318018 50.4319904,48.4259874 50.4319904,45.9599335 C50.4319904,43.4942569 48.4257988,41.4880653 45.9601222,41.4880653 M45.9601222,52.6952749 C42.2457629,52.6952749 39.2236491,49.6739156 39.2236491,45.9599335 C39.2236491,42.2463287 42.2457629,39.2245922 45.9601222,39.2245922 C49.6741042,39.2245922 52.6954635,42.2463287 52.6954635,45.9599335 C52.6954635,49.6739156 49.6741042,52.6952749 45.9601222,52.6952749" id="Fill-8"></path>
                <path d="M45.1004551,60.5183281 L46.8199401,60.5183281 L47.7098623,56.9544898 C47.8113413,56.5481964 48.128982,56.2309329 48.5356527,56.1298311 C49.5157365,55.8872623 50.4543234,55.4960587 51.3253832,54.9686695 C51.684521,54.7517533 52.1345749,54.7506216 52.4944671,54.9667832 L55.645976,56.8601784 L56.8603293,55.6458251 L54.9669341,52.4943162 C54.7511497,52.1351784 54.7515269,51.6862563 54.9680659,51.3274958 C55.4980958,50.4481365 55.8892994,49.5087952 56.129982,48.535879 C56.2307066,48.1292084 56.5479701,47.8111904 56.9542635,47.7097114 L60.518479,46.8201665 L60.518479,45.1014359 L56.9538862,44.210382 C56.5475928,44.108903 56.2307066,43.7912623 56.129982,43.3845916 C55.8881677,42.4090347 55.4973413,41.4708251 54.9684431,40.5963701 C54.7515269,40.2372323 54.7507725,39.7879329 54.9669341,39.428418 L56.8603293,36.2742683 L55.645976,35.059915 L52.4944671,36.9529329 C52.1349521,37.1690946 51.6860299,37.1687174 51.3268922,36.9518012 C50.4475329,36.421394 49.5093234,36.0316994 48.5379162,35.792903 C48.130491,35.6929329 47.8117186,35.3756695 47.7098623,34.9678671 L46.8195629,31.4017653 L45.1004551,31.4017653 L44.2105329,34.9678671 C44.1086766,35.3756695 43.7899042,35.6929329 43.3821018,35.792903 C42.4103174,36.0316994 41.472485,36.421394 40.595012,36.951424 C40.2358743,37.1683401 39.7869521,37.1690946 39.4270599,36.9533102 L36.2736647,35.059915 L35.0596886,36.2742683 L36.9523293,39.428418 C37.168491,39.7879329 37.1677365,40.2372323 36.9504431,40.5963701 C36.4241856,41.4666754 36.0341138,42.4045078 35.7911677,43.3845916 C35.6904431,43.7912623 35.3735569,44.108903 34.9672635,44.210382 L31.4019162,45.1014359 L31.4019162,46.8201665 L34.9668862,47.7097114 C35.3735569,47.8111904 35.6908204,48.1292084 35.7915449,48.535879 C36.0333593,49.5129449 36.4234311,50.451909 36.9511976,51.3274958 C37.1677365,51.6862563 37.1681138,52.1348012 36.9523293,52.4943162 L35.0596886,55.6458251 L36.2736647,56.8601784 L39.4270599,54.966406 C39.7873293,54.7506216 40.2373832,54.7509988 40.596521,54.9690467 C41.4660719,55.4960587 42.4039042,55.886885 43.3847425,56.1298311 C43.7910359,56.2309329 44.1090539,56.5481964 44.2105329,56.9544898 L45.1004551,60.5183281 Z M47.7034491,62.7818012 L44.2165689,62.7818012 C43.6971018,62.7818012 43.2444072,62.4279449 43.1187844,61.9243222 L42.1741617,58.1416814 C41.4321198,57.9126934 40.7130898,57.6135377 40.0253713,57.2472323 L36.6807126,59.2556874 C36.2351856,59.5224 35.6647904,59.4529868 35.2977305,59.0855497 L32.8343174,56.6210048 C32.4668802,56.2535677 32.3970898,55.6835497 32.6645569,55.2380228 L34.6722575,51.8944958 C34.3063293,51.2052683 34.0079281,50.4862383 33.7793174,49.7464599 L29.9962994,48.8025916 C29.4919222,48.6765916 29.1384431,48.223897 29.1384431,47.7044299 L29.1384431,44.2175497 C29.1384431,43.6980826 29.4919222,43.245388 29.9955449,43.1197653 L33.7796946,42.1740108 C34.0083054,41.4327234 34.3067066,40.7148251 34.6718802,40.0274838 L32.6641796,36.6813162 C32.3970898,36.2361665 32.4672575,35.6661485 32.8343174,35.2987114 L35.2977305,32.8341665 C35.6647904,32.4671066 36.2351856,32.3973162 36.6807126,32.6640287 L40.0261257,34.6728611 C40.7172395,34.3058012 41.4358922,34.0070228 42.1741617,33.7795437 L43.1187844,29.9961485 C43.2444072,29.4921485 43.6971018,29.1382922 44.2165689,29.1382922 L47.7034491,29.1382922 C48.2229162,29.1382922 48.675988,29.4921485 48.8016108,29.9961485 L49.7458563,33.7795437 C50.4841257,34.0070228 51.2031557,34.3058012 51.8946467,34.6728611 L55.2381737,32.664406 C55.6837006,32.3969389 56.2540958,32.4667293 56.6211557,32.8341665 L59.0860778,35.2987114 C59.4531377,35.6661485 59.5233054,36.2365437 59.2558383,36.6813162 L57.2473832,40.0271066 C57.6136886,40.7163341 57.9128443,41.4346096 58.1414551,42.1740108 L61.9244731,43.1197653 C62.4284731,43.2457653 62.7819521,43.6980826 62.7819521,44.2175497 L62.7819521,47.7044299 C62.7819521,48.223897 62.4280958,48.6765916 61.9240958,48.8025916 L58.1418323,49.7464599 C57.9135988,50.4847293 57.6140659,51.203382 57.247006,51.8948731 L59.2558383,55.2380228 C59.5233054,55.6835497 59.453515,56.2535677 59.0860778,56.6210048 L56.6211557,59.0855497 C56.2540958,59.4529868 55.6837006,59.5227772 55.2381737,59.2553102 L51.8954012,57.2472323 C51.2069281,57.6135377 50.4878982,57.9126934 49.7462335,58.1416814 L48.8016108,61.9243222 C48.675988,62.4279449 48.2229162,62.7818012 47.7034491,62.7818012 L47.7034491,62.7818012 Z" id="Fill-10"></path>
            </g>
        </g>
    </g>
</svg>