<?xml version="1.0" encoding="UTF-8"?>
<svg width="64px" height="63px" viewBox="0 0 64 63" version="1.1" xmlns="http://www.w3.org/2000/svg" xmlns:xlink="http://www.w3.org/1999/xlink">
    <title>Group 10</title>
    <g id="Symbols" stroke="none" stroke-width="1" fill="none" fill-rule="evenodd">
        <g id="Icon/04" transform="translate(-6.000000, -6.000000)" fill="#000000">
            <g id="Group-10" transform="translate(6.250000, 6.250000)">
                <path d="M46.8086104,62.0176197 L6.38307846,62.0176197 C2.8634641,62.0176197 9.97340425e-05,59.1542553 9.97340425e-05,55.634641 L9.97340425e-05,15.209109 C9.97340425e-05,11.6894947 2.8634641,8.82613032 6.38307846,8.82613032 L25.6477061,8.82613032 C26.3820811,8.82613032 26.9774934,9.42154255 26.9774934,10.1559176 C26.9774934,10.8902926 26.3820811,11.4857048 25.6477061,11.4857048 L6.38307846,11.4857048 C4.32988697,11.4857048 2.6596742,13.1559176 2.6596742,15.209109 L2.6596742,55.634641 C2.6596742,57.6878324 4.32988697,59.3580452 6.38307846,59.3580452 L46.8086104,59.3580452 C48.8618019,59.3580452 50.5320146,57.6878324 50.5320146,55.634641 L50.5320146,35.421875 C50.5320146,34.6875 51.1274269,34.0920878 51.8618019,34.0920878 C52.5961769,34.0920878 53.1915891,34.6875 53.1915891,35.421875 L53.1915891,55.634641 C53.1915891,59.1542553 50.3282247,62.0176197 46.8086104,62.0176197" id="Fill-1"></path>
                <path d="M29.2008311,28.695512 L25.2965758,37.2852726 L33.8863364,33.3806848 L59.0389295,8.22809176 L54.3537566,3.54291888 L29.2008311,28.695512 Z M22.6187168,41.2932513 C22.2729721,41.2932513 21.932879,41.1586104 21.6778923,40.9036237 C21.2862699,40.5116689 21.1782247,39.9175864 21.407613,39.4132646 L26.8793551,27.3756981 C26.945512,27.2304189 27.0372673,27.0984375 27.1496343,26.985738 L53.4132646,0.722107713 C53.932879,0.202493351 54.7746343,0.202493351 55.2942487,0.722107713 L61.8600731,7.28793218 C62.3793551,7.80688165 62.3793551,8.64930186 61.8600731,9.16825133 L35.5964428,35.4318816 C35.4834109,35.5449136 35.3514295,35.6363364 35.2061503,35.7024934 L23.1685838,41.1742354 C22.992387,41.2543551 22.8045545,41.2932513 22.6187168,41.2932513 L22.6187168,41.2932513 Z" id="Fill-3"></path>
                <path d="M55.1120013,14.6981715 C54.7729056,14.6981715 54.4334774,14.5691822 54.1741689,14.3112035 L48.3294215,8.49704122 C47.8084774,7.9790891 47.8061503,7.13700133 48.3244348,6.61605718 C48.842387,6.09611037 49.6844747,6.09378324 50.204754,6.61140293 L56.0498338,12.4255652 C56.5704455,12.9435173 56.5727726,13.7856051 56.0548205,14.3062168 C55.7948471,14.5671875 55.4534242,14.6981715 55.1120013,14.6981715" id="Fill-6"></path>
                <path d="M33.9719082,35.8380984 C33.6304854,35.8380984 33.2890625,35.7071144 33.0290891,35.4458112 L27.3811503,29.7672872 C26.8631981,29.247008 26.8655253,28.4049202 27.386137,27.8869681 C27.9070811,27.3686835 28.7491689,27.3713431 29.2667886,27.8922872 L34.9147274,33.5708112 C35.4326795,34.0910904 35.4303524,34.9331782 34.9097407,35.4511303 C34.6504322,35.709109 34.311004,35.8380984 33.9719082,35.8380984" id="Fill-8"></path>
            </g>
        </g>
    </g>
</svg>