<svg width="64" height="63" viewBox="0 0 64 63" fill="none" xmlns="http://www.w3.org/2000/svg">
<path fill-rule="evenodd" clip-rule="evenodd" d="M31.8862 2.5963C15.9268 2.5963 2.94298 15.5801 2.94298 31.5398C2.94298 47.4993 15.9268 60.4831 31.8862 60.4831C47.8457 60.4831 60.8298 47.4993 60.8298 31.5398C60.8298 15.5801 47.8457 2.5963 31.8862 2.5963ZM31.8862 62.6761C14.7177 62.6761 0.75 48.7084 0.75 31.5398C0.75 14.371 14.7177 0.40332 31.8862 0.40332C49.0548 0.40332 63.0228 14.371 63.0228 31.5398C63.0228 48.7084 49.0548 62.6761 31.8862 62.6761Z" fill="black"/>
<path fill-rule="evenodd" clip-rule="evenodd" d="M54.6942 32.6359C54.0886 32.6359 53.5977 32.1449 53.5977 31.5394C53.5977 19.5676 43.8578 9.82775 31.8861 9.82775C19.9143 9.82775 10.1744 19.5676 10.1744 31.5394C10.1744 32.1449 9.68347 32.6359 9.07794 32.6359C8.4724 32.6359 7.98145 32.1449 7.98145 31.5394C7.98145 18.3582 18.7049 7.63477 31.8861 7.63477C45.067 7.63477 55.7907 18.3582 55.7907 31.5394C55.7907 32.1449 55.2997 32.6359 54.6942 32.6359Z" fill="black"/>
<path fill-rule="evenodd" clip-rule="evenodd" d="M30.2889 31.6338C29.5499 32.0606 29.0211 32.7495 28.8004 33.5738C28.5795 34.398 28.6927 35.2591 29.1195 35.9981C29.5463 36.7371 30.2352 37.2659 31.0595 37.4869C31.8835 37.7078 32.7448 37.5943 33.4838 37.1675C35.1244 36.2204 40.0118 31.2969 43.4232 27.7399C38.637 28.9159 31.9292 30.687 30.2889 31.6338ZM31.8953 39.7911C31.4271 39.7911 30.9561 39.7295 30.492 39.605C29.1017 39.2327 27.9399 38.341 27.2204 37.0946C26.5008 35.8484 26.3095 34.3964 26.682 33.0063C27.0545 31.6162 27.946 30.4542 29.1924 29.7347C31.9907 28.1193 45.0288 25.0894 46.5063 24.7492L49.9937 23.9463L47.5548 26.5653C46.5214 27.6746 37.3785 37.4515 34.5803 39.0666C33.7502 39.5461 32.8286 39.7911 31.8953 39.7911Z" fill="black"/>
</svg>
