<?xml version="1.0" encoding="UTF-8"?>
<svg width="50px" height="51px" viewBox="0 0 50 51" version="1.1" xmlns="http://www.w3.org/2000/svg" xmlns:xlink="http://www.w3.org/1999/xlink">
    <title>Group 8</title>
    <g id="Symbols" stroke="none" stroke-width="1" fill="none" fill-rule="evenodd">
        <g id="Menu/01" transform="translate(-41.000000, -259.000000)" fill="#0C479D">
            <g id="Group-8" transform="translate(41.000000, 259.000000)">
                <path d="M24.9090789,1.97370614 C12.1415351,1.97370614 1.75447368,12.3607675 1.75447368,25.1285307 C1.75447368,37.8960746 12.1415351,48.283136 24.9090789,48.283136 C37.6766228,48.283136 48.0639035,37.8960746 48.0639035,25.1285307 C48.0639035,12.3607675 37.6766228,1.97370614 24.9090789,1.97370614 M24.9090789,50.0375219 C11.1742105,50.0375219 8.77192982e-05,38.8633991 8.77192982e-05,25.1285307 C8.77192982e-05,11.393443 11.1742105,0.219320175 24.9090789,0.219320175 C38.6439474,0.219320175 49.8182895,11.393443 49.8182895,25.1285307 C49.8182895,38.8633991 38.6439474,50.0375219 24.9090789,50.0375219" id="Fill-1"></path>
                <path d="M43.155614,26.0057018 C42.6711842,26.0057018 42.2784211,25.6129386 42.2784211,25.1285088 C42.2784211,15.5510965 34.4865351,7.75921053 24.9091228,7.75921053 C15.3317105,7.75921053 7.53982456,15.5510965 7.53982456,25.1285088 C7.53982456,25.6129386 7.1470614,26.0057018 6.66263158,26.0057018 C6.17820175,26.0057018 5.7854386,25.6129386 5.7854386,25.1285088 C5.7854386,14.5835526 14.3641667,6.00482456 24.9091228,6.00482456 C35.4538596,6.00482456 44.032807,14.5835526 44.032807,25.1285088 C44.032807,25.6129386 43.6400439,26.0057018 43.155614,26.0057018" id="Fill-4"></path>
                <path d="M23.6310965,25.2036842 C23.0398684,25.5451316 22.6168421,26.0962281 22.440307,26.7556579 C22.2635526,27.4150877 22.3541228,28.1039035 22.6955702,28.6951316 C23.0370175,29.2863596 23.588114,29.709386 24.2475439,29.8861404 C24.9067544,30.0628947 25.5957895,29.9721053 26.1870175,29.6306579 C27.4995175,28.8729825 31.409386,24.9341667 34.1385526,22.0885526 C30.3096053,23.0293421 24.9433772,24.4462281 23.6310965,25.2036842 M24.9161842,31.7295614 C24.5416228,31.7295614 24.1648684,31.6802193 23.7935965,31.5806579 C22.6813158,31.2828509 21.7519298,30.5694737 21.1762719,29.5723246 C20.600614,28.5753947 20.4475439,27.4137719 20.7455702,26.3017105 C21.0435965,25.1896491 21.7567544,24.2600439 22.7539035,23.684386 C24.9925,22.3920614 35.4229825,19.9681579 36.605,19.6960088 L39.3949123,19.0536842 L37.4438158,21.1488596 C36.6170614,22.0363596 29.302807,29.8578509 27.0642105,31.1499561 C26.4001754,31.5335088 25.6628947,31.7295614 24.9161842,31.7295614" id="Fill-6"></path>
            </g>
        </g>
    </g>
</svg>