<svg width="71" height="63" viewBox="0 0 71 63" fill="none" xmlns="http://www.w3.org/2000/svg">
<path fill-rule="evenodd" clip-rule="evenodd" d="M40.1495 45.1717C39.7645 45.1717 39.3901 44.9725 39.183 44.6153C38.8739 44.0824 39.0552 43.3994 39.5884 43.0902C41.3061 42.0938 42.546 40.4203 42.9905 38.4987C43.1292 37.8982 43.7285 37.5238 44.3289 37.6628C44.9297 37.8017 45.3041 38.401 45.1652 39.0015C44.5823 41.5221 42.9579 43.716 40.7084 45.0207C40.5324 45.1231 40.3395 45.1717 40.1495 45.1717Z" fill="black"/>
<path fill-rule="evenodd" clip-rule="evenodd" d="M44.1989 36.2089C43.6074 36.2089 43.1138 35.7441 43.085 35.1467L43.0443 34.3038C43.0144 33.688 43.4896 33.1648 44.1054 33.1352C44.7173 33.104 45.2444 33.5803 45.2739 34.1961L45.3147 35.039C45.3442 35.6548 44.8694 36.1779 44.2536 36.2075C44.2354 36.2086 44.217 36.2089 44.1989 36.2089Z" fill="black"/>
<path fill-rule="evenodd" clip-rule="evenodd" d="M35.4351 11.1821C32.6204 13.7434 22.3757 23.9245 22.3757 36.3843C22.3757 43.5855 28.2342 49.4441 35.4351 49.4441C42.6363 49.4441 48.4946 43.5855 48.4946 36.3843C48.4946 23.9245 38.2499 13.7434 35.4351 11.1821ZM35.4351 51.6762C27.0035 51.6762 20.1436 44.8163 20.1436 36.3843C20.1436 20.9429 34.133 9.32045 34.7287 8.83329L35.4351 8.25488L36.1419 8.83329C36.7373 9.32045 50.7267 20.9429 50.7267 36.3843C50.7267 44.8163 43.867 51.6762 35.4351 51.6762Z" fill="black"/>
<path fill-rule="evenodd" clip-rule="evenodd" d="M65.285 28.3488C64.7362 28.3488 64.2577 27.9436 64.1807 27.3848C63.234 20.5061 59.8244 14.18 54.58 9.57199C49.2875 4.92215 42.4884 2.36105 35.4354 2.36105C23.8972 2.36105 13.4552 9.19392 8.83331 19.7681C8.58638 20.3331 7.92845 20.5904 7.36372 20.3438C6.79871 20.0968 6.54118 19.4389 6.78811 18.8742C11.7655 7.48689 23.0102 0.128906 35.4354 0.128906C43.0311 0.128906 50.3534 2.88728 56.0535 7.89509C61.7005 12.8571 65.3721 19.6705 66.3919 27.0804C66.4762 27.6911 66.0493 28.2542 65.4385 28.3382C65.3869 28.3454 65.3358 28.3488 65.285 28.3488Z" fill="black"/>
<path fill-rule="evenodd" clip-rule="evenodd" d="M35.4354 62.6288C27.8442 62.6288 20.5255 59.8737 14.8272 54.8712C9.1818 49.915 5.50797 43.1084 4.4823 35.7046C4.39804 35.0942 4.82438 34.5305 5.43487 34.446C6.04536 34.3626 6.60897 34.7878 6.69352 35.3983C7.64553 42.2713 11.0571 48.5911 16.2998 53.1938C21.5908 57.8386 28.3866 60.3966 35.4354 60.3966C47.1014 60.3966 57.5886 53.4586 62.1531 42.7214C62.3944 42.1541 63.0495 41.8896 63.6168 42.131C64.1843 42.3721 64.4485 43.0275 64.2075 43.5947C59.292 55.1575 47.9985 62.6288 35.4354 62.6288Z" fill="black"/>
<path fill-rule="evenodd" clip-rule="evenodd" d="M65.5689 28.3093C63.8764 28.3093 62.4997 29.6862 62.4997 31.3785C62.4997 33.071 63.8764 34.448 65.5689 34.448C67.2614 34.448 68.6381 33.071 68.6381 31.3785C68.6381 29.6862 67.2614 28.3093 65.5689 28.3093ZM65.5689 36.6801C62.6456 36.6801 60.2676 34.302 60.2676 31.3785C60.2676 28.4552 62.6456 26.0771 65.5689 26.0771C68.4922 26.0771 70.8703 28.4552 70.8703 31.3785C70.8703 34.302 68.4922 36.6801 65.5689 36.6801Z" fill="black"/>
<path fill-rule="evenodd" clip-rule="evenodd" d="M5.30134 28.3093C3.60882 28.3093 2.23214 29.6862 2.23214 31.3785C2.23214 33.071 3.60882 34.448 5.30134 34.448C6.99358 34.448 8.37054 33.071 8.37054 31.3785C8.37054 29.6862 6.99358 28.3093 5.30134 28.3093ZM5.30134 36.6801C2.37807 36.6801 0 34.302 0 31.3785C0 28.4552 2.37807 26.0771 5.30134 26.0771C8.22461 26.0771 10.6027 28.4552 10.6027 31.3785C10.6027 34.302 8.22461 36.6801 5.30134 36.6801Z" fill="black"/>
</svg>
