<?xml version="1.0" encoding="UTF-8"?>
<svg width="57px" height="50px" viewBox="0 0 57 50" version="1.1" xmlns="http://www.w3.org/2000/svg" xmlns:xlink="http://www.w3.org/1999/xlink">
    <title>Group 16</title>
    <g id="Symbols" stroke="none" stroke-width="1" fill="none" fill-rule="evenodd">
        <g id="Menu/01" transform="translate(-38.000000, -340.000000)" fill="#5A5A5A">
            <g id="Group-16" transform="translate(38.000000, 340.000000)">
                <path d="M32.1196429,36.0340625 C31.8116071,36.0340625 31.5120536,35.8746875 31.3464286,35.5889732 C31.0991071,35.1626339 31.2441964,34.6162054 31.6707589,34.3688839 C33.0448661,33.5717857 34.0368304,32.2329464 34.3924107,30.6956696 C34.5033482,30.2153125 34.9828125,29.9157589 35.4631696,30.0269196 C35.94375,30.1380804 36.2433036,30.6175446 36.1321429,31.0979018 C35.6658482,33.1144196 34.3662946,34.8695536 32.5667411,35.9133036 C32.4258929,35.9952232 32.2716518,36.0340625 32.1196429,36.0340625" id="Fill-1"></path>
                <path d="M35.3591964,28.8635268 C34.8859821,28.8635268 34.4911161,28.4916518 34.468125,28.01375 L34.4355357,27.3394196 C34.4116518,26.8467857 34.7917857,26.4282589 35.2844196,26.4045982 C35.7739286,26.3795982 36.1955804,26.760625 36.2192411,27.2532589 L36.2518304,27.9275893 C36.2754911,28.4202232 35.8955804,28.83875 35.4029464,28.8624107 C35.3884375,28.8633036 35.3737054,28.8635268 35.3591964,28.8635268" id="Fill-3"></path>
                <path d="M28.3482589,8.84212054 C26.0964732,10.8912277 17.9007143,19.0360938 17.9007143,29.0039509 C17.9007143,34.7648884 22.5875446,39.4517188 28.3482589,39.4517188 C34.1091964,39.4517188 38.7958036,34.7648884 38.7958036,29.0039509 C38.7958036,19.0360938 30.6000446,10.8912277 28.3482589,8.84212054 L28.3482589,8.84212054 Z M28.3482589,41.237433 C21.6029464,41.237433 16.115,35.7494866 16.115,29.0039509 C16.115,16.6508259 27.3065179,7.35283482 27.7830804,6.96310268 L28.3482589,6.50037946 L28.9136607,6.96310268 C29.39,7.35283482 40.5815179,16.6508259 40.5815179,29.0039509 C40.5815179,35.7494866 35.0937946,41.237433 28.3482589,41.237433 L28.3482589,41.237433 Z" id="Fill-5"></path>
                <path d="M52.2281027,22.5758036 C51.7890402,22.5758036 51.4062277,22.2516964 51.3446205,21.8045982 C50.5872545,16.3016964 47.8595759,11.2407589 43.6640402,7.554375 C39.4301116,3.83450893 33.9908259,1.785625 28.3484152,1.785625 C19.1178348,1.785625 10.7642634,7.25191964 7.06671875,15.7112946 C6.86917411,16.1633036 6.34283482,16.3691071 5.89104911,16.1717857 C5.43904018,15.9742411 5.23301339,15.4479018 5.43055804,14.9961161 C9.41247768,5.88629464 18.4082366,-8.92857143e-05 28.3484152,-8.92857143e-05 C34.4249777,-8.92857143e-05 40.2827902,2.20660714 44.8428348,6.21285714 C49.3604688,10.1825 52.2977455,15.6331696 53.1135938,21.5610714 C53.1810045,22.0496875 52.8394866,22.5001339 52.3508705,22.5673214 C52.3095759,22.573125 52.2687277,22.5758036 52.2281027,22.5758036" id="Fill-7"></path>
                <path d="M28.3483259,50 C22.2753348,50 16.4204241,47.7959821 11.8617188,43.7939732 C7.34542411,39.8290179 4.40636161,34.3837054 3.58582589,28.4607143 C3.51841518,27.9723214 3.85948661,27.5214286 4.34787946,27.4537946 C4.83627232,27.3870536 5.28716518,27.7272321 5.35479911,28.215625 C6.11640625,33.7140625 8.84564732,38.7698661 13.0398437,42.4520089 C17.2726563,46.1678571 22.7092634,48.2142857 28.3483259,48.2142857 C37.6811384,48.2142857 46.0708705,42.6638393 49.722433,34.0741071 C49.9155134,33.6203125 50.4396205,33.4087054 50.8934152,33.6017857 C51.347433,33.7946429 51.558817,34.3189732 51.3659598,34.7727679 C47.4335938,44.0229911 38.3987723,50 28.3483259,50" id="Fill-10"></path>
                <path d="M52.4554688,22.5445312 C51.1014509,22.5445312 50.0001116,23.6460937 50.0001116,24.9998884 C50.0001116,26.3539062 51.1014509,27.4554687 52.4554688,27.4554687 C53.8094866,27.4554687 54.9108259,26.3539062 54.9108259,24.9998884 C54.9108259,23.6460937 53.8094866,22.5445312 52.4554688,22.5445312 M52.4554688,29.241183 C50.1168527,29.241183 48.2143973,27.3387277 48.2143973,24.9998884 C48.2143973,22.6612723 50.1168527,20.758817 52.4554688,20.758817 C54.7940848,20.758817 56.6965402,22.6612723 56.6965402,24.9998884 C56.6965402,27.3387277 54.7940848,29.241183 52.4554688,29.241183" id="Fill-12"></path>
                <path d="M4.24118304,22.5445312 C2.88716518,22.5445312 1.78582589,23.6460937 1.78582589,24.9998884 C1.78582589,26.3539062 2.88716518,27.4554687 4.24118304,27.4554687 C5.59497768,27.4554687 6.69654018,26.3539062 6.69654018,24.9998884 C6.69654018,23.6460937 5.59497768,22.5445312 4.24118304,22.5445312 M4.24118304,29.241183 C1.90256696,29.241183 0.000111607143,27.3387277 0.000111607143,24.9998884 C0.000111607143,22.6612723 1.90256696,20.758817 4.24118304,20.758817 C6.57979911,20.758817 8.48225446,22.6612723 8.48225446,24.9998884 C8.48225446,27.3387277 6.57979911,29.241183 4.24118304,29.241183" id="Fill-14"></path>
            </g>
        </g>
    </g>
</svg>