<?xml version="1.0" encoding="UTF-8"?>
<svg width="50px" height="51px" viewBox="0 0 50 51" version="1.1" xmlns="http://www.w3.org/2000/svg" xmlns:xlink="http://www.w3.org/1999/xlink">
    <title>Group 15</title>
    <g id="Symbols" stroke="none" stroke-width="1" fill="none" fill-rule="evenodd">
        <g id="Menu/01" transform="translate(-41.000000, -419.000000)" fill="#5A5A5A">
            <g id="Group-15" transform="translate(41.000000, 419.000000)">
                <path d="M5.46726457,47.7239013 C4.97197309,47.7239013 4.57040359,47.3223318 4.57040359,46.8270404 L4.57040359,39.074574 L12.3230942,39.074574 C12.8183857,39.074574 13.2199552,39.4761435 13.2199552,39.971435 C13.2199552,40.4667265 12.8183857,40.868296 12.3230942,40.868296 L6.36412556,40.868296 L6.36412556,46.8270404 C6.36412556,47.3223318 5.96255605,47.7239013 5.46726457,47.7239013" id="Fill-1"></path>
                <path d="M24.5829372,50.0091928 C18.2405605,50.0091928 13.0636547,48.1215247 8.31410314,44.0825112 C7.51186099,43.4 4.92912556,40.7047085 4.8194843,40.5903587 C4.47688341,40.2325112 4.48921525,39.6647982 4.84706278,39.3221973 C5.20491031,38.9795964 5.7723991,38.9919283 6.115,39.3495516 C6.84369955,40.1107623 8.86813901,42.1988789 9.47621076,42.7161435 C14.0179148,46.5782511 18.7683632,48.2751121 24.882713,48.2139013 C31.1062556,48.1529148 36.8836099,45.7690583 41.1508744,41.5020179 C45.573296,37.0793722 48.0019955,31.2607623 47.9896637,25.117713 C47.9831614,21.9452915 47.2656726,18.7022422 45.9147758,15.7387892 C45.7091704,15.2883408 45.9080493,14.756278 46.358722,14.5506726 C46.8093946,14.3452915 47.3412332,14.5441704 47.5468386,14.994843 C49.0031166,18.1887892 49.776435,21.6881166 49.7834373,25.1141256 C49.7968386,31.7376682 47.1813677,38.0080717 42.4192601,42.7704036 C37.8179148,47.3715247 31.5961659,49.9419283 24.900426,50.0076233 C24.7943722,50.0087444 24.6883184,50.0091928 24.5829372,50.0091928" id="Fill-3"></path>
                <path d="M3.0532287,35.7638565 C2.71264574,35.7638565 2.3870852,35.5687892 2.23663677,35.2387444 C0.780358744,32.0447982 0.00704035874,28.5454709 3.80419666e-05,25.1192377 C-0.0133632287,18.4956951 2.60188341,12.2255157 7.36421525,7.46318386 C11.9655605,2.86183857 18.1870852,0.291659193 24.8828251,0.22573991 C31.3633184,0.161838565 36.6406726,2.04479821 41.469148,6.15107623 C42.2713901,6.83336323 44.8543498,9.52887892 44.9637668,9.6432287 C45.3063677,10.0010762 45.2942601,10.5687892 44.9364126,10.9113901 C44.578565,11.253991 44.010852,11.2416592 43.6682511,10.8840359 C42.9395516,10.1230493 40.9151121,8.03470852 40.3070404,7.51744395 C35.7653363,3.65511211 31.0216143,1.95892377 24.9003139,2.01946188 C18.6772197,2.08067265 12.8996413,4.46430493 8.6326009,8.73179372 C4.20995516,13.153991 1.78125561,18.9726009 1.79381166,25.1156502 C1.80008969,28.2880717 2.51757848,31.5313453 3.86869955,34.4947982 C4.07430493,34.9454709 3.87542601,35.4773094 3.42475336,35.6829148 C3.30412556,35.7378475 3.17766816,35.7638565 3.0532287,35.7638565" id="Fill-6"></path>
                <path d="M45.2129148,11.1604036 L37.4604484,11.1604036 C36.965157,11.1604036 36.5635874,10.7588341 36.5635874,10.2635426 C36.5635874,9.76825112 36.965157,9.36668161 37.4604484,9.36668161 L43.4191928,9.36668161 L43.4191928,3.40793722 C43.4191928,2.91264574 43.8207623,2.51107623 44.3160538,2.51107623 C44.8113453,2.51107623 45.2129148,2.91264574 45.2129148,3.40793722 L45.2129148,11.1604036 Z" id="Fill-9"></path>
                <polygon id="Fill-11" points="34.5409193 36.0350448 33.3983184 34.8924439 34.6669283 33.6242825 35.8093049 34.7668834"></polygon>
                <path d="M18.8616143,25.1918161 C19.412287,25.1918161 19.933139,25.4016816 20.3120628,25.7806054 L33.1947982,38.6633408 C33.6465919,39.1151345 34.324843,39.298991 35.1035426,39.1815022 C35.9791031,39.048991 36.8734978,38.5640135 37.6219283,37.8153587 C39.056009,36.381278 39.3934529,34.4716368 38.3898655,33.4680493 L26.1069058,21.1850897 C25.6113901,20.689574 25.4116143,19.9691704 25.5728251,19.2581839 C26.1589238,16.6691704 25.3912108,14.0057175 23.5187892,12.1335202 C21.6618386,10.2763453 19.0165471,9.50639013 16.4441256,10.0734305 C16.3356054,10.0974215 16.2912108,10.1765695 16.2730493,10.2389013 C16.2566816,10.2940583 16.2434529,10.4005605 16.3353812,10.4924888 L20.3436771,14.5007848 C20.7288789,14.8862108 20.9409865,15.3983184 20.9409865,15.9431614 C20.9409865,16.4880045 20.7286547,17.0001121 20.3432287,17.3853139 L17.9194619,19.8088565 C17.5344843,20.1940583 17.0223767,20.4061659 16.4775336,20.4061659 C15.9326906,20.4061659 15.420583,20.1940583 15.0356054,19.8088565 L11.0270852,15.8007848 C10.935157,15.7086323 10.8286547,15.7220852 10.7732735,15.7382287 C10.7111659,15.7563901 10.6320179,15.801009 10.6080269,15.9095291 C10.0412108,18.4826233 10.8111659,21.1274664 12.6678924,22.984417 C14.2513004,24.5676009 16.4474888,25.3747758 18.691435,25.1985426 C18.7483857,25.1940583 18.8051121,25.1918161 18.8616143,25.1918161 M34.6441256,41.0108744 C33.5804484,41.0108744 32.6335874,40.6389013 31.9264126,39.9315022 L19.0436771,27.048991 C18.9775336,26.9828475 18.8734978,26.983296 18.8315695,26.9866592 C16.0640807,27.2036996 13.3544395,26.207287 11.3997309,24.2528027 C9.10780269,21.9606502 8.15690583,18.6974215 8.8564574,15.5234305 C9.01542601,14.8023543 9.55713004,14.2247758 10.2703587,14.0164798 C10.9909865,13.8061659 11.7667713,14.0036996 12.2954709,14.5321749 L12.2954709,14.5321749 L16.3037668,18.5404709 C16.3634081,18.6001121 16.4311211,18.6124439 16.4775336,18.6124439 C16.5239462,18.6124439 16.5916592,18.6001121 16.6513004,18.5404709 L19.0750673,16.116704 C19.1347085,16.0570628 19.1472646,15.9893498 19.1472646,15.9429372 C19.1472646,15.8965247 19.1347085,15.8285874 19.0752915,15.7691704 L15.0669955,11.7608744 C14.538296,11.2321749 14.3407623,10.4561659 14.5510762,9.73576233 C14.7595964,9.02253363 15.3369507,8.4808296 16.0582511,8.32186099 C19.2317937,7.62253363 22.4952466,8.57320628 24.7871749,10.8651345 C27.0974888,13.1754484 28.0450224,16.4610987 27.3221525,19.6543722 C27.3129596,19.6945067 27.2900897,19.8315022 27.3752915,19.9164798 L39.6582511,32.1996637 C41.4015247,33.9431614 41.0712556,36.9025785 38.8903139,39.0837444 C37.8728251,40.1012332 36.6232735,40.7658072 35.371704,40.9550448 C35.1243946,40.9924888 34.8813453,41.0108744 34.6441256,41.0108744" id="Fill-13"></path>
            </g>
        </g>
    </g>
</svg>