<?xml version="1.0" encoding="UTF-8"?>
<svg width="57px" height="55px" viewBox="0 0 57 55" version="1.1" xmlns="http://www.w3.org/2000/svg" xmlns:xlink="http://www.w3.org/1999/xlink">
    <title>Group 7</title>
    <g id="Symbols" stroke="none" stroke-width="1" fill="none" fill-rule="evenodd">
        <g id="Icon/05" transform="translate(-10.000000, -11.000000)" fill="#000000">
            <g id="Group-7" transform="translate(10.000000, 11.250000)">
                <path d="M2.15530063,51.3580301 L11.5501187,51.3580301 L11.5501187,34.3926028 L2.15530063,34.3926028 L2.15530063,51.3580301 Z M12.6181566,53.494106 L1.08726266,53.494106 C0.497349684,53.494106 0.0192246835,53.015981 0.0192246835,52.426068 L0.0192246835,33.3245649 C0.0192246835,32.7342959 0.497349684,32.2565269 1.08726266,32.2565269 L12.6181566,32.2565269 C13.2080696,32.2565269 13.6861946,32.7342959 13.6861946,33.3245649 L13.6861946,52.426068 C13.6861946,53.015981 13.2080696,53.494106 12.6181566,53.494106 L12.6181566,53.494106 Z" id="Fill-1"></path>
                <path d="M23.3462421,51.3580301 L32.7182753,51.3580301 L32.7182753,20.9509889 L23.3462421,20.9509889 L23.3462421,51.3580301 Z M33.7863133,53.494106 L22.2782041,53.494106 C21.6882911,53.494106 21.2101661,53.015981 21.2101661,52.426068 L21.2101661,19.8829509 C21.2101661,19.293038 21.6882911,18.814913 22.2782041,18.814913 L33.7863133,18.814913 C34.3762263,18.814913 34.8543513,19.293038 34.8543513,19.8829509 L34.8543513,52.426068 C34.8543513,53.015981 34.3762263,53.494106 33.7863133,53.494106 L33.7863133,53.494106 Z" id="Fill-3"></path>
                <path d="M44.5257911,51.3580301 L53.8967563,51.3580301 L53.8967563,2.13607595 L44.5257911,2.13607595 L44.5257911,51.3580301 Z M54.9651503,53.494106 L43.4577532,53.494106 C42.8681962,53.494106 42.3897152,53.015981 42.3897152,52.426068 L42.3897152,1.06803797 C42.3897152,0.478125 42.8681962,-1.01184883e-14 43.4577532,-1.01184883e-14 L54.9651503,-1.01184883e-14 C55.5547073,-1.01184883e-14 56.0331883,0.478125 56.0331883,1.06803797 L56.0331883,52.426068 C56.0331883,53.015981 55.5547073,53.494106 54.9651503,53.494106 L54.9651503,53.494106 Z" id="Fill-4"></path>
                <path d="M1.06803797,15.1834415 C0.794976266,15.1834415 0.521914557,15.0794858 0.313647152,14.8712184 C-0.103955696,14.4546835 -0.104667722,13.7786155 0.312223101,13.3610127 L13.1785206,0.470862342 C13.5950554,0.0532594937 14.2714794,0.0521914557 14.6887263,0.469438291 C15.1063291,0.885973101 15.1070411,1.56204114 14.6901503,1.97964399 L1.82385285,14.8697943 C1.61558544,15.0787737 1.34181171,15.1834415 1.06803797,15.1834415" id="Fill-5"></path>
                <path d="M14.0284296,11.745712 C13.4385166,11.745712 12.9603916,11.267587 12.9603916,10.6776741 L12.9603916,2.15473101 L4.38369066,2.15473101 C3.79377769,2.15473101 3.31565269,1.67660601 3.31565269,1.08669304 C3.31565269,0.496424051 3.79377769,0.0186550633 4.38369066,0.0186550633 L14.0284296,0.0186550633 C14.6183426,0.0186550633 15.0964676,0.496424051 15.0964676,1.08669304 L15.0964676,10.6776741 C15.0964676,11.267587 14.6183426,11.745712 14.0284296,11.745712" id="Fill-6"></path>
            </g>
        </g>
    </g>
</svg>