<svg width="57" height="54" viewBox="0 0 57 54" fill="none" xmlns="http://www.w3.org/2000/svg">
<path fill-rule="evenodd" clip-rule="evenodd" d="M2.65561 51.4872H12.0504V34.5218H2.65561V51.4872ZM13.1185 53.6233H1.58757C0.997656 53.6233 0.519531 53.1452 0.519531 52.5553V33.4538C0.519531 32.8635 0.997656 32.3857 1.58757 32.3857H13.1185C13.7084 32.3857 14.1865 32.8635 14.1865 33.4538V52.5553C14.1865 53.1452 13.7084 53.6233 13.1185 53.6233Z" fill="black"/>
<path fill-rule="evenodd" clip-rule="evenodd" d="M23.846 51.4865H33.2181V21.0794H23.846V51.4865ZM34.2861 53.6226H22.778C22.1881 53.6226 21.71 53.1444 21.71 52.5545V20.0114C21.71 19.4215 22.1881 18.9434 22.778 18.9434H34.2861C34.876 18.9434 35.3541 19.4215 35.3541 20.0114V52.5545C35.3541 53.1444 34.876 53.6226 34.2861 53.6226Z" fill="black"/>
<path fill-rule="evenodd" clip-rule="evenodd" d="M45.0257 51.4869H54.3967V2.26498H45.0257V51.4869ZM55.4651 53.623H43.9577C43.3681 53.623 42.8896 53.1449 42.8896 52.555V1.19694C42.8896 0.607031 43.3681 0.128906 43.9577 0.128906H55.4651C56.0546 0.128906 56.5331 0.607031 56.5331 1.19694V52.555C56.5331 53.1449 56.0546 53.623 55.4651 53.623Z" fill="black"/>
<path fill-rule="evenodd" clip-rule="evenodd" d="M1.56804 15.3125C1.29498 15.3125 1.02192 15.2085 0.813648 15.0003C0.396045 14.5837 0.395333 13.9077 0.812224 13.4901L13.6785 0.599914C14.0951 0.182311 14.7715 0.181243 15.1887 0.59849C15.6063 1.01502 15.607 1.69109 15.1902 2.1087L2.32385 14.9988C2.11559 15.2078 1.84181 15.3125 1.56804 15.3125Z" fill="black"/>
<path fill-rule="evenodd" clip-rule="evenodd" d="M14.5282 11.8745C13.9383 11.8745 13.4602 11.3964 13.4602 10.8065V2.28354H4.88347C4.29355 2.28354 3.81543 1.80541 3.81543 1.2155C3.81543 0.62523 4.29355 0.147461 4.88347 0.147461H14.5282C15.1181 0.147461 15.5962 0.62523 15.5962 1.2155V10.8065C15.5962 11.3964 15.1181 11.8745 14.5282 11.8745Z" fill="black"/>
</svg>
