<svg width="94" height="94" viewBox="0 0 94 94" fill="none" xmlns="http://www.w3.org/2000/svg">
<rect width="94" height="94" fill="white"/>
<mask id="mask0" mask-type="alpha" maskUnits="userSpaceOnUse" x="0" y="6" width="94" height="82">
<path fill-rule="evenodd" clip-rule="evenodd" d="M0 6H94V87.3489H0V6Z" fill="white"/>
</mask>
<g mask="url(#mask0)">
<path fill-rule="evenodd" clip-rule="evenodd" d="M8.90632 53C8.90632 31.9841 25.9247 14.9431 46.932 14.9063C67.9648 14.8696 85.0939 31.9674 85.0938 53.0002C85.0938 63.5515 80.8035 73.1006 73.8728 79.9989C72.7449 81.1216 72.6653 82.9201 73.7014 84.128L75.5584 86.2929C76.7053 87.6299 78.7416 87.7061 79.996 86.4695C88.611 77.9758 93.9628 66.1815 93.9999 53.1365C94.0728 27.4469 73.3565 6.36201 47.6692 6.00466C21.4053 5.63933 0 26.8199 0 53C0 66.1002 5.35995 77.948 14.006 86.4713C15.2597 87.7071 17.2956 87.629 18.4417 86.2927L20.2983 84.1284C21.3361 82.9185 21.252 81.1189 20.1225 79.9943C13.1946 73.0961 8.90632 63.549 8.90632 53" fill="black"/>
</g>
<path fill-rule="evenodd" clip-rule="evenodd" d="M69.4818 43.443L46.9942 46.7588C46.9889 46.7588 46.9837 46.7587 46.9784 46.7587C45.4563 46.7587 44.0247 47.3471 42.9416 48.4191C40.692 50.6458 40.6734 54.2875 42.9001 56.5373C43.9757 57.6237 45.456 58.2392 46.9823 58.2392C47.0322 58.2392 47.0824 58.2384 47.1325 58.2372C48.3516 58.2048 49.5043 57.7975 50.4678 57.0586L70.1241 45.2354C70.4542 45.0369 70.5639 44.5911 70.3974 44.1263C70.2309 43.661 69.8619 43.3861 69.4818 43.443Z" fill="black"/>
</svg>
