<svg width="63" height="63" viewBox="0 0 63 63" fill="none" xmlns="http://www.w3.org/2000/svg">
<path fill-rule="evenodd" clip-rule="evenodd" d="M47.5585 62.1466H7.13298C3.61336 62.1466 0.75 59.2832 0.75 55.7636V15.3381C0.75 11.8184 3.61336 8.95508 7.13298 8.95508H26.3976C27.132 8.95508 27.7274 9.55049 27.7274 10.2849C27.7274 11.0192 27.132 11.6147 26.3976 11.6147H7.13298C5.07979 11.6147 3.40957 13.2849 3.40957 15.3381V55.7636C3.40957 57.8168 5.07979 59.487 7.13298 59.487H47.5585C49.6117 59.487 51.2819 57.8168 51.2819 55.7636V35.5508C51.2819 34.8164 51.8773 34.221 52.6117 34.221C53.3461 34.221 53.9415 34.8164 53.9415 35.5508V55.7636C53.9415 59.2832 51.0781 62.1466 47.5585 62.1466Z" fill="black"/>
<path fill-rule="evenodd" clip-rule="evenodd" d="M29.9505 28.8241L26.0462 37.4138L34.636 33.5092L59.7886 8.35663L55.1034 3.67146L29.9505 28.8241ZM23.3683 41.4218C23.0226 41.4218 22.6825 41.2872 22.4275 41.0322C22.0359 40.6402 21.9279 40.0461 22.1572 39.5418L27.629 27.5042C27.6951 27.359 27.7869 27.227 27.8993 27.1143L54.1629 0.850648C54.6825 0.331034 55.5243 0.331034 56.0439 0.850648L62.6097 7.41647C63.129 7.93542 63.129 8.77784 62.6097 9.29679L36.3461 35.5604C36.233 35.6735 36.1011 35.7649 35.9558 35.831L23.9182 41.3028C23.742 41.3829 23.5542 41.4218 23.3683 41.4218Z" fill="black"/>
<path fill-rule="evenodd" clip-rule="evenodd" d="M55.8623 14.827C55.5232 14.827 55.1838 14.6981 54.9245 14.4401L49.0797 8.62592C48.5588 8.10797 48.5564 7.26588 49.0747 6.74493C49.5927 6.22499 50.4348 6.22266 50.955 6.74028L56.8001 12.5544C57.3207 13.0724 57.3231 13.9145 56.8051 14.4351C56.5451 14.6961 56.2037 14.827 55.8623 14.827Z" fill="black"/>
<path fill-rule="evenodd" clip-rule="evenodd" d="M34.7219 35.9671C34.3804 35.9671 34.039 35.8361 33.7791 35.5748L28.1311 29.8963C27.6132 29.376 27.6155 28.5339 28.1361 28.016C28.657 27.4977 29.4991 27.5003 30.0168 28.0213L35.6647 33.6998C36.1826 34.2201 36.1803 35.0622 35.6597 35.5801C35.4004 35.8381 35.061 35.9671 34.7219 35.9671Z" fill="black"/>
</svg>
