<svg width="63" height="63" viewBox="0 0 63 63" fill="none" xmlns="http://www.w3.org/2000/svg">
<path fill-rule="evenodd" clip-rule="evenodd" d="M7.58397 59.7843C6.96485 59.7843 6.46289 59.2824 6.46289 58.6632V48.9727H16.1538C16.7729 48.9727 17.2748 49.4746 17.2748 50.0937C17.2748 50.7128 16.7729 51.2148 16.1538 51.2148H8.70504V58.6632C8.70504 59.2824 8.20308 59.7843 7.58397 59.7843Z" fill="black"/>
<path fill-rule="evenodd" clip-rule="evenodd" d="M31.4786 62.6402C23.5506 62.6402 17.0795 60.2806 11.1425 55.2318C10.1397 54.3787 6.91131 51.0096 6.77426 50.8666C6.346 50.4193 6.36142 49.7097 6.80873 49.2814C7.25604 48.8532 7.9654 48.8686 8.39365 49.3156C9.30452 50.2671 11.8351 52.8773 12.5952 53.5239C18.2723 58.3515 24.2104 60.4726 31.8533 60.396C39.6327 60.3198 46.8544 57.34 52.1885 52.0062C57.7165 46.4779 60.7524 39.2046 60.737 31.5258C60.7289 27.5603 59.832 23.5065 58.1434 19.8022C57.8864 19.2391 58.135 18.574 58.6983 18.317C59.2616 18.0603 59.9264 18.3089 60.1834 18.8722C62.0038 22.8647 62.9704 27.2388 62.9791 31.5213C62.9959 39.8008 59.7266 47.6388 53.774 53.5917C48.0223 59.3431 40.2451 62.5561 31.8754 62.6382C31.7429 62.6396 31.6103 62.6402 31.4786 62.6402Z" fill="black"/>
<path fill-rule="evenodd" clip-rule="evenodd" d="M4.56649 44.8338C4.14076 44.8338 3.73381 44.59 3.54575 44.1774C1.7254 40.185 0.758753 35.8108 0.750065 31.528C0.733248 23.2486 4.00231 15.4109 9.95522 9.45795C15.7069 3.70627 23.4838 0.493544 31.8535 0.411144C39.9541 0.331268 46.5508 2.68497 52.5864 7.81781C53.5892 8.67067 56.8179 12.0401 56.9547 12.183C57.3829 12.6303 57.3678 13.34 56.9205 13.7682C56.4732 14.1965 55.7635 14.181 55.3353 13.734C54.4244 12.7828 51.8938 10.1724 51.1338 9.52577C45.4566 4.69786 39.527 2.57762 31.8753 2.6533C24.0965 2.72981 16.8745 5.70935 11.5407 11.0437C6.0124 16.5715 2.97652 23.8447 2.99222 31.5235C3.00006 35.4891 3.89693 39.5432 5.58583 43.2475C5.84283 43.8108 5.59423 44.4756 5.03089 44.7326C4.88011 44.8013 4.72204 44.8338 4.56649 44.8338Z" fill="black"/>
<path fill-rule="evenodd" clip-rule="evenodd" d="M57.2658 14.0792H47.5752C46.9561 14.0792 46.4541 13.5773 46.4541 12.9582C46.4541 12.339 46.9561 11.8371 47.5752 11.8371H55.0236V4.38865C55.0236 3.76954 55.5256 3.26758 56.1447 3.26758C56.7638 3.26758 57.2658 3.76954 57.2658 4.38865V14.0792Z" fill="black"/>
<path fill-rule="evenodd" clip-rule="evenodd" d="M43.9263 45.1726L42.498 43.7444L44.0838 42.1592L45.5118 43.5874L43.9263 45.1726Z" fill="black"/>
<path fill-rule="evenodd" clip-rule="evenodd" d="M24.3273 31.6191C25.0156 31.6191 25.6667 31.8814 26.1403 32.3551L42.2438 48.4585C42.8085 49.0233 43.6563 49.2531 44.6297 49.1062C45.7241 48.9406 46.8421 48.3344 47.7777 47.3985C49.5703 45.6059 49.9921 43.2189 48.7376 41.9644L33.3839 26.6107C32.7645 25.9913 32.5148 25.0908 32.7163 24.2021C33.4489 20.9658 32.4893 17.6365 30.1488 15.2962C27.8276 12.9748 24.5209 12.0123 21.3054 12.7211C21.1698 12.7511 21.1143 12.85 21.0916 12.928C21.0711 12.9969 21.0546 13.13 21.1695 13.2449L26.1799 18.2553C26.6614 18.7371 26.9265 19.3772 26.9265 20.0583C26.9265 20.7393 26.6611 21.3795 26.1793 21.861L23.1496 24.8904C22.6684 25.3719 22.0282 25.637 21.3472 25.637C20.6661 25.637 20.026 25.3719 19.5448 24.8904L14.5341 19.8803C14.4192 19.7651 14.2861 19.7819 14.2169 19.8021C14.1392 19.8248 14.0403 19.8806 14.0103 20.0162C13.3018 23.2326 14.2642 26.5387 16.5851 28.8599C18.5644 30.8388 21.3096 31.8478 24.1146 31.6275C24.1857 31.6219 24.2567 31.6191 24.3273 31.6191ZM44.0554 51.3929C42.7258 51.3929 41.5422 50.928 40.6583 50.0437L24.5549 33.9406C24.4722 33.8579 24.3421 33.8585 24.2897 33.8627C20.8304 34.134 17.4433 32.8884 14.9999 30.4453C12.135 27.5801 10.9464 23.5011 11.8208 19.5336C12.0195 18.6323 12.6967 17.9103 13.5882 17.6499C14.489 17.387 15.4587 17.634 16.1196 18.2946L21.13 23.3049C21.2045 23.3795 21.2892 23.3949 21.3472 23.3949C21.4052 23.3949 21.4898 23.3795 21.5644 23.3049L24.5941 20.2752C24.6686 20.2007 24.6843 20.116 24.6843 20.058C24.6843 20 24.6686 19.9151 24.5944 19.8408L19.584 14.8304C18.9231 14.1696 18.6762 13.1995 18.9391 12.299C19.1998 11.4075 19.9215 10.7304 20.8231 10.5317C24.79 9.6575 28.8693 10.8458 31.7342 13.7108C34.6221 16.5986 35.8065 20.7057 34.903 24.6973C34.8915 24.7475 34.8629 24.9187 34.9694 25.0249L50.3231 40.3789C52.5022 42.5583 52.0893 46.2576 49.3632 48.984C48.0913 50.2559 46.5294 51.0866 44.9649 51.3231C44.6558 51.3699 44.3519 51.3929 44.0554 51.3929Z" fill="black"/>
</svg>
